<?xml version="1.0" encoding="UTF-8" standalone="no"?>
<!-- Created with Inkscape (http://www.inkscape.org/) -->

<svg
   xmlns:dc="http://purl.org/dc/elements/1.1/"
   xmlns:cc="http://creativecommons.org/ns#"
   xmlns:rdf="http://www.w3.org/1999/02/22-rdf-syntax-ns#"
   xmlns:svg="http://www.w3.org/2000/svg"
   xmlns="http://www.w3.org/2000/svg"
   xmlns:xlink="http://www.w3.org/1999/xlink"
   xmlns:sodipodi="http://sodipodi.sourceforge.net/DTD/sodipodi-0.dtd"
   xmlns:inkscape="http://www.inkscape.org/namespaces/inkscape"
   width="210mm"
   height="210mm"
   viewBox="0 0 744.09449 744.09448"
   id="svg2"
   version="1.1"
   inkscape:version="0.91 r13725"
   sodipodi:docname="music.svg">
  <defs
     id="defs4" />
  <sodipodi:namedview
     id="base"
     pagecolor="#ffffff"
     bordercolor="#666666"
     borderopacity="1.0"
     inkscape:pageopacity="0.0"
     inkscape:pageshadow="2"
     inkscape:zoom="1.8101934"
     inkscape:cx="281.01349"
     inkscape:cy="305.69429"
     inkscape:document-units="px"
     inkscape:current-layer="layer1"
     showgrid="false"
     units="mm"
     height="210mm"
     inkscape:window-width="1920"
     inkscape:window-height="1017"
     inkscape:window-x="0"
     inkscape:window-y="0"
     inkscape:window-maximized="1" />
  <metadata
     id="metadata7">
    <rdf:RDF>
      <cc:Work
         rdf:about="">
        <dc:format>image/svg+xml</dc:format>
        <dc:type
           rdf:resource="http://purl.org/dc/dcmitype/StillImage" />
        <dc:title></dc:title>
      </cc:Work>
    </rdf:RDF>
  </metadata>
  <g
     inkscape:label="Calque 1"
     inkscape:groupmode="layer"
     id="layer1"
     transform="translate(0,-308.26772)"
     style="display:inline">
    <path
       style="fill:none;fill-rule:evenodd;stroke:#000000;stroke-width:5;stroke-linecap:round;stroke-linejoin:miter;stroke-miterlimit:4;stroke-dasharray:none;stroke-opacity:1"
       d="m 1.819233,561.97318 c 54.081426,56.6557 45.102485,154.54437 46.592556,185.56659 1.874822,39.03245 13.766089,275.94983 216.941281,262.00913 140.72162,-9.6556 198.23092,-160.71068 135.10361,-243.75016 -27.97501,-36.79927 -79.32467,-69.62502 -122.99036,-40.07437 -13.1444,8.89544 -24.39591,22.17633 -19.56523,48.10856 2.41536,12.96615 15.59052,28.27837 32.13043,33.01106 16.53991,4.73269 41.4059,-8.21622 31.52423,-35.05286"
       id="scroll"
       inkscape:connector-curvature="0"
       sodipodi:nodetypes="cssssssc" />
    <g
       transform="matrix(0.80835572,-0.58869434,-0.58869434,-0.80835572,-1032.3759,-438.4062)"
       style="font-style:normal;font-variant:normal;font-weight:500;font-stretch:normal;font-size:800.63824463px;line-height:125%;font-family:aakar;-inkscape-font-specification:'aakar, Medium';text-align:start;letter-spacing:0px;word-spacing:0px;writing-mode:lr-tb;text-anchor:start;fill:#000000;fill-opacity:1;stroke:none;stroke-width:5.00000001;stroke-linecap:butt;stroke-linejoin:miter;stroke-opacity:1;stroke-miterlimit:4;stroke-dasharray:none"
       id="text4282">
      <path
         d="m -164.25045,-572.33371 c -43.90166,16.01276 -58.58003,17.61404 -76.19408,17.61404 -51.77461,0 -96.34347,-19.21532 -133.70658,-57.64596 -36.82936,-38.43063 -55.24404,-84.33389 -55.24404,-137.70977 0,-18.68156 2.93567,-37.63 8.80702,-56.84532 6.40511,-19.21532 13.34397,-36.02872 20.81659,-50.44021 8.00639,-14.94525 19.4822,-31.49177 34.42745,-49.63957 15.47901,-18.68156 28.28922,-33.35993 38.43063,-44.0351 10.67518,-11.20894 25.35355,-26.15419 44.03511,-44.83575 -12.27645,-43.76825 -18.41468,-83.80015 -18.41468,-120.09575 0,-48.0383 8.80702,-88.0702 26.42106,-120.0957 17.61404,-32.5593 35.22808,-48.839 52.84212,-48.839 5.33759,0 11.20894,3.4694 17.61405,10.4083 6.93886,6.9389 13.61084,16.5465 20.01595,28.823 6.40511,12.2765 11.7427,28.5561 16.01277,48.839 4.80383,19.7491 7.20574,41.0994 7.20574,64.051 0,84.8677 -30.15737,155.05696 -90.47212,210.56787 l 20.81659,94.47532 c 8.54015,-1.60128 16.27965,-2.40192 23.21851,-2.40192 32.55929,0 60.04787,13.34397 82.46574,40.03191 22.41787,26.15419 33.626808,58.17972 33.626808,96.07659 0,62.98355 -28.822978,105.68425 -72.724638,121.69702 z m -20.1494,-589.26979 c 0,-29.3567 -8.54014,-44.0351 -25.62042,-44.0351 -19.21532,0 -35.49497,14.1446 -48.83894,42.4339 -13.34397,28.2892 -20.01595,59.781 -20.01595,94.4753 0,22.4179 3.46943,41.9001 10.4083,58.4466 20.28283,-12.2765 39.23127,-34.1606 56.84531,-65.6524 18.1478,-32.0255 27.2217,-60.5816 27.2217,-85.6683 z m 57.64596,494.79447 c 0,-29.35673 -8.54014,-52.84212 -25.62043,-70.45616 -17.08028,-17.61404 -39.23127,-26.42106 -66.45297,-26.42106 l 36.02872,180.94424 c 37.36312,-15.47901 56.04468,-43.50135 56.04468,-84.06702 z m -72.85809,88.87085 -36.82935,-184.1468 c -14.41149,3.20255 -27.75547,12.00957 -40.03192,26.42106 -11.74269,14.41149 -17.61404,29.35674 -17.61404,44.83575 0,8.00638 1.60128,16.01276 4.80383,24.01914 3.20255,7.47263 6.93887,13.87773 11.20894,19.21532 4.80383,5.33759 9.60766,10.14142 14.41149,14.41149 4.80383,4.27007 8.80702,7.47263 12.00957,9.60766 l 4.80383,2.40191 -6.40511,4.00319 c -17.61404,-4.80383 -34.42744,-15.479 -50.44021,-32.02553 -15.47901,-16.54652 -23.21851,-37.36311 -23.21851,-62.44978 0,-25.08667 7.7395,-48.0383 23.21851,-68.85489 16.01277,-21.35035 33.62681,-35.49496 52.84213,-42.43382 l -14.41149,-85.6683 c -83.80014,69.92241 -125.70021,137.4429 -125.70021,202.56148 0,38.96439 14.67837,71.52368 44.03511,97.67787 29.35673,26.15418 62.71666,39.23127 100.07978,39.23127 9.0739,0 24.81978,-2.93567 47.23765,-8.80702 z"
         id="path4305"
         inkscape:connector-curvature="0"
         sodipodi:nodetypes="cscscccccscscscsccscscssssccsssccscccsccsccccscccsssc"
         style="stroke-width:5.00000001;stroke-miterlimit:4;stroke-dasharray:none" />
    </g>
    <text
       xml:space="preserve"
       style="font-style:normal;font-variant:normal;font-weight:500;font-stretch:normal;font-size:800.63824463px;line-height:125%;font-family:aakar;-inkscape-font-specification:'aakar, Medium';text-align:start;letter-spacing:0px;word-spacing:0px;writing-mode:lr-tb;text-anchor:start;display:inline;fill:#000000;fill-opacity:1;stroke:none;stroke-width:5.00000001;stroke-linecap:butt;stroke-linejoin:miter;stroke-opacity:1;stroke-miterlimit:4;stroke-dasharray:none"
       x="-1536.9641"
       y="394.8956"
       id="text4282-3"
       sodipodi:linespacing="125%"
       transform="matrix(0.80835572,-0.58869434,-0.58869434,-0.80835572,0,0)"><tspan
         sodipodi:role="line"
         id="tspan4284-6"
         x="-1536.9641"
         y="394.8956">𝄞</tspan></text>
    <g
       id="strings"
       style="stroke-width:5;stroke-miterlimit:4;stroke-dasharray:none"
       inkscape:label="#strings">
      <path
         sodipodi:nodetypes="cc"
         inkscape:connector-curvature="0"
         id="G"
         d="m 60,309.36221 683,683"
         style="fill:#ffffff;fill-rule:evenodd;stroke:#000000;stroke-width:5;stroke-linecap:round;stroke-linejoin:miter;stroke-miterlimit:4;stroke-dasharray:none;stroke-opacity:1" />
      <path
         style="fill:#ffffff;fill-rule:evenodd;stroke:#000000;stroke-width:5;stroke-linecap:round;stroke-linejoin:miter;stroke-miterlimit:4;stroke-dasharray:none;stroke-opacity:1"
         d="m 612,309.36221 131,131"
         id="E"
         inkscape:connector-curvature="0"
         sodipodi:nodetypes="cc" />
      <path
         sodipodi:nodetypes="cc"
         inkscape:connector-curvature="0"
         id="A"
         d="m 428,309.36221 315,315"
         style="fill:#ffffff;fill-rule:evenodd;stroke:#000000;stroke-width:5;stroke-linecap:round;stroke-linejoin:miter;stroke-miterlimit:4;stroke-dasharray:none;stroke-opacity:1" />
      <path
         style="fill:#ffffff;fill-rule:evenodd;stroke:#000000;stroke-width:5;stroke-linecap:round;stroke-linejoin:miter;stroke-miterlimit:4;stroke-dasharray:none;stroke-opacity:1"
         d="m 244,309.36221 499,499"
         id="D"
         inkscape:connector-curvature="0"
         sodipodi:nodetypes="cc" />
    </g>
    <path
       sodipodi:nodetypes="csssszcsssc"
       inkscape:connector-curvature="0"
       id="path4184"
       d="m -198.90838,621.52457 c -40.7279,-66.90216 -137.60501,-83.56462 -167.18452,-93.03306 -37.21721,-11.91328 -262.98418,-84.7181 -196.93286,-277.36214 45.74806,-133.42765 206.54055,-149.88145 270.41197,-67.41295 28.3049,36.5462 46.72187,94.6421 6.87662,129.17164 -11.99435,10.39421 -27.73478,17.82493 -51.53315,6.44715 -23.7984,-11.37787 -45.52192,-66.75729 19.39883,-82.23049 0,0 -18.62457,-13.6963 -39.91322,-4.2429 -21.28861,9.4534 -41.98278,40.84352 -29.01525,79.68048 16.64122,49.83957 82.87416,72.65601 131.79195,25.95785 51.0828,-48.76497 17.66659,-106.45733 17.66659,-106.45733"
       style="fill:#ffffff;fill-rule:evenodd;stroke:#000000;stroke-width:5;stroke-linecap:butt;stroke-linejoin:miter;stroke-miterlimit:4;stroke-dasharray:none;stroke-opacity:1" />
  </g>
  <g
     inkscape:groupmode="layer"
     id="layer2"
     inkscape:label="Modèle"
     style="display:none;opacity:0.41199999">
    <image
       sodipodi:absref="/home/niavlys/Fichiers/Images/clipart-guitar-silhouette-16.jpg"
       xlink:href="/home/niavlys/Fichiers/Images/clipart-guitar-silhouette-16.jpg"
       style="fill:#ffffff"
       transform="matrix(-0.25881905,-0.96592583,0.96592583,-0.25881905,0,-308.26772)"
       width="1161.307"
       height="1049.6428"
       preserveAspectRatio="none"
       id="image4202"
       x="-1108.5312"
       y="-1478.2179" />
    <image
       sodipodi:absref="/home/niavlys/Fichiers/Images/nor-f5s-web-1.jpg"
       xlink:href="/home/niavlys/Fichiers/Images/nor-f5s-web-1.jpg"
       transform="matrix(0.71578758,-0.69831808,0.69831808,0.71578758,0,0)"
       width="1677.5441"
       height="2171.5779"
       preserveAspectRatio="none"
       id="image4278"
       x="-645.09674"
       y="164.97362" />
  </g>
</svg>
